<?xml version="1.0" encoding="utf-8"?>
<!DOCTYPE svg PUBLIC "-//W3C//DTD SVG 1.1//EN" "http://www.w3.org/Graphics/SVG/1.1/DTD/svg11.dtd">
<svg version="1.1" xmlns="http://www.w3.org/2000/svg" xmlns:xlink="http://www.w3.org/1999/xlink" x="0px" y="0px"
	 width="400px" height="400px" viewBox="7.875 8 400 400" enable-background="new 7.875 8 400 400" xml:space="preserve">
<path d="M346.54,231.572v76.488c0,19.082-6.775,35.396-20.324,48.947c-13.55,13.551-29.866,20.324-48.948,20.324H77.147
	c-19.082,0-35.398-6.773-48.948-20.324S7.875,327.143,7.875,308.061V107.94c0-19.082,6.775-35.398,20.325-48.948
	s29.866-20.325,48.948-20.325h200.12c10.103,0,19.483,2.004,28.142,6.013c2.405,1.123,3.849,2.967,4.33,5.532
	c0.48,2.726-0.24,5.051-2.165,6.975l-11.786,11.786c-1.604,1.604-3.448,2.405-5.532,2.405c-0.48,0-1.202-0.16-2.164-0.481
	c-3.689-0.962-7.297-1.443-10.824-1.443H77.147c-10.583,0-19.643,3.768-27.18,11.305c-7.537,7.537-11.305,16.596-11.305,27.18
	v200.121c0,10.583,3.768,19.643,11.305,27.18c7.537,7.537,16.596,11.305,27.18,11.305h200.12c10.583,0,19.644-3.768,27.18-11.305
	s11.305-16.597,11.305-27.18v-61.095c0-2.084,0.722-3.849,2.165-5.292l15.394-15.394c1.604-1.603,3.447-2.405,5.532-2.405
	c0.963,0,1.925,0.24,2.887,0.722C344.937,225.88,346.54,228.204,346.54,231.572z M402.103,113.953L206.312,309.744
	c-3.849,3.849-8.418,5.772-13.71,5.772c-5.292,0-9.862-1.924-13.71-5.772L75.464,206.316c-3.849-3.849-5.773-8.418-5.773-13.71
	c0-5.292,1.924-9.861,5.773-13.71l26.458-26.458c3.849-3.849,8.418-5.773,13.71-5.773c5.292,0,9.862,1.924,13.71,5.773
	l63.259,63.259L348.224,60.075c3.849-3.849,8.419-5.773,13.71-5.773c5.292,0,9.862,1.924,13.711,5.773l26.458,26.458
	c3.849,3.849,5.772,8.418,5.772,13.71C407.875,105.535,405.951,110.104,402.103,113.953z"/>
</svg>
