<?xml version="1.0" encoding="utf-8"?>
<!DOCTYPE svg PUBLIC "-//W3C//DTD SVG 1.1//EN" "http://www.w3.org/Graphics/SVG/1.1/DTD/svg11.dtd">
<svg version="1.1" xmlns="http://www.w3.org/2000/svg" xmlns:xlink="http://www.w3.org/1999/xlink" x="0px" y="0px"
	 width="400px" height="400px" viewBox="24 32 400 400" enable-background="new 24 32 400 400" xml:space="preserve">
<path fill="red" d="M424,138.581c0,6.882-2.408,12.731-7.226,17.548L194.839,378.064c-4.817,4.816-10.667,7.226-17.548,7.226
	c-6.882,0-12.731-2.409-17.548-7.226L31.226,249.549C26.409,244.731,24,238.881,24,232s2.409-12.731,7.226-17.548l35.097-35.097
	c4.817-4.817,10.667-7.226,17.548-7.226c6.881,0,12.731,2.409,17.548,7.226l75.871,76.129L346.581,85.936
	c4.817-4.817,10.666-7.226,17.548-7.226s12.73,2.409,17.549,7.226l35.097,35.097C421.592,125.849,424,131.699,424,138.581z"/>
</svg>
