<?xml version="1.0" encoding="utf-8"?>
<!DOCTYPE svg PUBLIC "-//W3C//DTD SVG 1.1//EN" "http://www.w3.org/Graphics/SVG/1.1/DTD/svg11.dtd">
<svg version="1.1" xmlns="http://www.w3.org/2000/svg" xmlns:xlink="http://www.w3.org/1999/xlink" x="0px" y="0px"
	 width="400px" height="400px" viewBox="-24 40 400 400" enable-background="new -24 40 400 400" xml:space="preserve">
<path d="M376,361.886c0,8.978-3.143,16.611-9.428,22.896l-45.791,45.791c-6.284,6.284-13.918,9.428-22.896,9.428
	s-16.611-3.144-22.896-9.428L176,331.582l-98.99,98.99C70.725,436.856,63.093,440,54.114,440c-8.978,0-16.61-3.144-22.896-9.428
	l-45.791-45.791C-20.857,378.497-24,370.863-24,361.886s3.143-16.611,9.428-22.896L84.417,240l-98.99-98.99
	C-20.857,134.725-24,127.093-24,118.114c0-8.978,3.143-16.61,9.428-22.896l45.791-45.791C37.504,43.143,45.136,40,54.114,40
	c8.979,0,16.611,3.143,22.896,9.428l98.99,98.99l98.99-98.99C281.274,43.143,288.908,40,297.886,40s16.611,3.143,22.896,9.428
	l45.791,45.791c6.285,6.285,9.428,13.917,9.428,22.896c0,8.979-3.143,16.611-9.428,22.896L267.582,240l98.99,98.99
	C372.857,345.274,376,352.908,376,361.886z"/>
</svg>
