<?xml version="1.0" encoding="utf-8"?>
<!DOCTYPE svg PUBLIC "-//W3C//DTD SVG 1.1//EN" "http://www.w3.org/Graphics/SVG/1.1/DTD/svg11.dtd">
<svg version="1.1" xmlns="http://www.w3.org/2000/svg" xmlns:xlink="http://www.w3.org/1999/xlink" x="0px" y="0px"
	 width="400px" height="400px" viewBox="-24 8 400 400" enable-background="new -24 8 400 400" xml:space="preserve">
<path d="M294.182,44.364H57.818c-12.5,0-23.201,4.451-32.103,13.352c-8.901,8.902-13.352,19.603-13.352,32.103v236.363
	c0,12.5,4.451,23.2,13.352,32.103c8.902,8.902,19.603,13.353,32.103,13.353h236.363c12.5,0,23.201-4.45,32.103-13.353
	s13.353-19.603,13.353-32.103V89.818c0-12.5-4.451-23.201-13.353-32.103C317.383,48.814,306.682,44.364,294.182,44.364z M376,89.818
	v236.363c0,22.539-8.002,41.809-24.006,57.812C335.991,399.999,316.72,408,294.182,408H57.818c-22.538,0-41.809-8.001-57.812-24.006
	C-15.998,367.99-24,348.721-24,326.182V89.818c0-22.538,8.002-41.809,24.006-57.812S35.28,8,57.818,8h236.363
	c22.538,0,41.81,8.002,57.812,24.006C367.998,48.01,376,67.28,376,89.818z"/>
</svg>
